<?xml version="1.0" encoding="utf-8"?>
<!-- Generator: Adobe Illustrator 22.0.1, SVG Export Plug-In . SVG Version: 6.00 Build 0)  -->
<svg version="1.1" id="Layer_1" xmlns="http://www.w3.org/2000/svg" xmlns:xlink="http://www.w3.org/1999/xlink" x="0px" y="0px"
	 viewBox="0 0 258 30" style="enable-background:new 0 0 258 30;" xml:space="preserve">
<style type="text/css">
	.st0{fill:#231F20;}
</style>
<g>
	<polygon class="st0" points="2,28.8 3.8,28.8 3.8,15.9 15.9,15.9 15.9,14.1 3.8,14.1 3.8,3 17.4,3 17.4,1.2 2,1.2 	"/>
	<polygon class="st0" points="26.8,1.2 25,1.2 25,28.8 41,28.8 41,27 26.8,27 	"/>
	<polyline class="st0" points="57.1,0.8 56.4,0.8 45.4,28.8 47.3,28.8 57.2,3.8 67.1,28.8 69,28.8 57.9,0.8 57.3,0.8 	"/>
	<polygon class="st0" points="70.4,3 79.6,3 79.6,28.9 81.3,28.9 81.3,3 90.5,3 90.5,1.2 70.4,1.2 	"/>
	<path class="st0" d="M106.7,13.7c-4.6-0.5-7.4-0.9-7.7-4.6c-0.1-1.3,0.2-2.4,1-3.4c1.4-1.9,4.1-2.6,6.1-2.6c2.4,0,4.6,0.7,5.9,2.1
		c0.6,0.7,1,1.4,1.2,2.4l0.2,1.3l2.5-0.5l-0.1-0.9l0-0.4c-0.6-3.1-3-5.4-6.5-6.2c-4.3-1-9,0.4-11.3,3.3c-1.1,1.5-1.6,3.2-1.5,5.1
		c0.4,6.1,5.7,6.6,9.9,7c4.2,0.4,6.8,0.9,7.4,3.7c0.3,1.6,0,3.1-1,4.3c-1.3,1.7-3.9,2.7-6.6,2.7c-2.9,0-7.1-1.6-7.4-5.1l-0.2-1.2
		l-2.6,0.3l0.2,1.2c0.5,4.8,5.5,7.4,10,7.4c3.5,0,6.8-1.4,8.7-3.7c1.5-1.8,2-4,1.4-6.4C115.3,14.5,110.8,14.1,106.7,13.7z"/>
	<path class="st0" d="M245.8,13.7c-4.6-0.5-7.4-0.9-7.7-4.6c-0.1-1.3,0.2-2.4,1-3.4c1.4-1.9,4.1-2.6,6.1-2.6c2.4,0,4.6,0.7,5.9,2.1
		c0.6,0.7,1,1.4,1.2,2.4l0.2,1.3l2.5-0.5l-0.1-0.9l0-0.4c-0.6-3.1-3-5.4-6.5-6.2c-4.3-1-9,0.4-11.3,3.3c-1.1,1.5-1.6,3.2-1.5,5.1
		c0.4,6.1,5.7,6.6,9.9,7c4.2,0.4,6.8,0.9,7.4,3.7c0.3,1.6,0,3.1-1,4.3c-1.3,1.7-3.9,2.7-6.6,2.7c-2.9,0-7.1-1.6-7.4-5.1l-0.2-1.2
		l-2.6,0.3l0.2,1.2c0.5,4.8,5.5,7.4,10,7.4c3.5,0,6.8-1.4,8.7-3.7c1.5-1.8,2-4,1.4-6.4C254.5,14.5,249.9,14.1,245.8,13.7z"/>
	<polyline class="st0" points="162.4,0 161.8,0 150.4,28.8 153.2,28.8 162.8,4.5 172.4,28.8 175.2,28.8 163.8,0 163.1,0 	"/>
	<polygon class="st0" points="140.8,13.1 126.2,13.1 126.2,0.4 123.7,0.4 123.7,28.8 126.2,28.8 126.2,15.7 140.8,15.7 140.8,28.8 
		143.4,28.8 143.4,0.4 140.8,0.4 	"/>
	<path class="st0" d="M186.8,16.5v0.8l12.8,11.5h3.9l-12.2-11h1.7c2.7,0,5.1-0.9,6.7-2.7c1.4-1.6,2.2-3.7,2.2-6c0-2.3-0.8-4.4-2.2-6
		c-1.6-1.8-3.9-2.7-6.7-2.7h-10.1v28.4h2.6V3h7.6c4.4,0,6.4,3.2,6.4,6.1s-2,6.1-6.4,6.1h-6.1v0.6"/>
	<polygon class="st0" points="210.7,0 210.7,28.4 227.3,28.4 227.3,26 213.2,26 213.2,15.4 226.8,15.4 226.8,12.9 213.3,12.9 
		213.3,2.5 227.3,2.5 227.3,0 	"/>
</g>
</svg>
